GIL11_free1_ik
nRows=3
nColumns=375

# SIMM Motion File Header:
name GIL11_free1_ik
datacolumns 375
datarows 3
otherdata 1
range 0.13333000 0.15000000
endheader
time	pelvis_tx	pelvis_ty	pelvis_tz	pelvis_tilt	pelvis_list	pelvis_rotation	hip_flexion_r	hip_adduction_r	hip_rotation_r	knee_angle_r	ankle_angle_r	hip_flexion_l	hip_adduction_l	hip_rotation_l	knee_angle_l	ankle_angle_l	lumbar_extension	lumbar_bending	lumbar_rotation	subtalar_angle_r	mtp_angle_r	subtalar_angle_l	mtp_angle_l	asis_r_px	asis_r_py	asis_r_pz	asis_l_px	asis_l_py	asis_l_pz	midasis_px	midasis_py	midasis_pz	psis_r_px	psis_r_py	psis_r_pz	psis_l_px	psis_l_py	psis_l_pz	hip_r_px	hip_r_py	hip_r_pz	hip_l_px	hip_l_py	hip_l_pz	midhip_px	midhip_py	midhip_pz	epicondLat_r_px	epicondLat_r_py	epicondLat_r_pz	epicondMed_r_px	epicondMed_r_py	epicondMed_r_pz	thighwand_r_px	thighwand_r_py	thighwand_r_pz	upperleg1_r_px	upperleg1_r_py	upperleg1_r_pz	upperleg2_r_px	upperleg2_r_py	upperleg2_r_pz	malleolusLat_r_px	malleolusLat_r_py	malleolusLat_r_pz	malleolusMedv_r_px	malleolusMedv_r_py	malleolusMedv_r_pz	shankwand_r_px	shankwand_r_py	shankwand_r_pz	lowerleg1_r_px	lowerleg1_r_py	lowerleg1_r_pz	knee_r_px	knee_r_py	knee_r_pz	ankle_r_px	ankle_r_py	ankle_r_pz	toe_r_px	toe_r_py	toe_r_pz	epicondLat_l_px	epicondLat_l_py	epicondLat_l_pz	epicondMed_l_px	epicondMed_l_py	epicondMed_l_pz	thighwand_l_px	thighwand_l_py	thighwand_l_pz	upperleg1_l_px	upperleg1_l_py	upperleg1_l_pz	upperleg2_l_px	upperleg2_l_py	upperleg2_l_pz	malleolusLat_l_px	malleolusLat_l_py	malleolusLat_l_pz	malleolusMedv_l_px	malleolusMedv_l_py	malleolusMedv_l_pz	shankwand_l_px	shankwand_l_py	shankwand_l_pz	lowerleg1_l_px	lowerleg1_l_py	lowerleg1_l_pz	knee_l_px	knee_l_py	knee_l_pz	ankle_l_px	ankle_l_py	ankle_l_pz	toe_l_px	toe_l_py	toe_l_pz	subclavicle_r_px	subclavicle_r_py	subclavicle_r_pz	subclavicle_l_px	subclavicle_l_py	subclavicle_l_pz	neck_px	neck_py	neck_pz	sternalnotch_px	sternalnotch_py	sternalnotch_pz	xyphoidprocess_px	xyphoidprocess_py	xyphoidprocess_pz	midhip_tx	midhip_ty	midhip_tz	hip_r_tx	hip_r_ty	hip_r_tz	hip_l_tx	hip_l_ty	hip_l_tz	knee_r_tx	knee_r_ty	knee_r_tz	knee_l_tx	knee_l_ty	knee_l_tz	ankle_r_tx	ankle_r_ty	ankle_r_tz	ankle_l_tx	ankle_l_ty	ankle_l_tz	midasis_tx	midasis_ty	midasis_tz	asis_r_tx	asis_r_ty	asis_r_tz	asis_l_tx	asis_l_ty	asis_l_tz	psis_r_tx	psis_r_ty	psis_r_tz	psis_l_tx	psis_l_ty	psis_l_tz	epicondLat_r_tx	epicondLat_r_ty	epicondLat_r_tz	epicondLat_l_tx	epicondLat_l_ty	epicondLat_l_tz	epicondMed_r_tx	epicondMed_r_ty	epicondMed_r_tz	epicondMed_l_tx	epicondMed_l_ty	epicondMed_l_tz	malleolusLat_r_tx	malleolusLat_r_ty	malleolusLat_r_tz	malleolusLat_l_tx	malleolusLat_l_ty	malleolusLat_l_tz	malleolusMedv_r_tx	malleolusMedv_r_ty	malleolusMedv_r_tz	malleolusMedv_l_tx	malleolusMedv_l_ty	malleolusMedv_l_tz	neck_tx	neck_ty	neck_tz	subclavicle_r_tx	subclavicle_r_ty	subclavicle_r_tz	subclavicle_l_tx	subclavicle_l_ty	subclavicle_l_tz	sternalnotch_tx	sternalnotch_ty	sternalnotch_tz	xyphoidprocess_tx	xyphoidprocess_ty	xyphoidprocess_tz	thighwand_r_tx	thighwand_r_ty	thighwand_r_tz	thighwand_l_tx	thighwand_l_ty	thighwand_l_tz	upperleg1_r_tx	upperleg1_r_ty	upperleg1_r_tz	upperleg1_l_tx	upperleg1_l_ty	upperleg1_l_tz	upperleg2_r_tx	upperleg2_r_ty	upperleg2_r_tz	upperleg2_l_tx	upperleg2_l_ty	upperleg2_l_tz	shankwand_r_tx	shankwand_r_ty	shankwand_r_tz	shankwand_l_tx	shankwand_l_ty	shankwand_l_tz	lowerleg1_r_tx	lowerleg1_r_ty	lowerleg1_r_tz	lowerleg1_l_tx	lowerleg1_l_ty	lowerleg1_l_tz	toe_r_tx	toe_r_ty	toe_r_tz	toe_l_tx	toe_l_ty	toe_l_tz	ground_force_vx	ground_force_vy	ground_force_vz	ground_force_px	ground_force_py	ground_force_pz	ground_force_vx	ground_force_vy	ground_force_vz	ground_force_px	ground_force_py	ground_force_pz	ground_torque_x	ground_torque_y	ground_torque_z	ground_torque_x	ground_torque_y	ground_torque_z	ground_marker_px	ground_marker_py	ground_marker_pz	ground_marker_px	ground_marker_py	ground_marker_pz	ground_marker_px	ground_marker_py	ground_marker_pz	ground_marker_px	ground_marker_py	ground_marker_pz	ground_marker_px	ground_marker_py	ground_marker_pz	ground_marker_px	ground_marker_py	ground_marker_pz	ground_marker_px	ground_marker_py	ground_marker_pz	ground_marker_px	ground_marker_py	ground_marker_pz	ground_marker_px	ground_marker_py	ground_marker_pz	ground_marker_px	ground_marker_py	ground_marker_pz	ground_marker_px	ground_marker_py	ground_marker_pz	ground_marker_px	ground_marker_py	ground_marker_pz	ground_marker_px	ground_marker_py	ground_marker_pz	ground_marker_px	ground_marker_py	ground_marker_pz	ground_marker_px	ground_marker_py	ground_marker_pz	ground_marker_px	ground_marker_py	ground_marker_pz	ground_marker_px	ground_marker_py	ground_marker_pz	ground_marker_px	ground_marker_py	ground_marker_pz	ground_marker_px	ground_marker_py	ground_marker_pz	ground_marker_px	ground_marker_py	ground_marker_pz	ground_marker_px	ground_marker_py	ground_marker_pz	ground_marker_px	ground_marker_py	ground_marker_pz	ground_marker_px	ground_marker_py	ground_marker_pz	ground_marker_px	ground_marker_py	ground_marker_pz	ground_marker_px	ground_marker_py	ground_marker_pz	ground_marker_px	ground_marker_py	ground_marker_pz	ground_marker_px	ground_marker_py	ground_marker_pz	ground_marker_px	ground_marker_py	ground_marker_pz	ground_marker_px	ground_marker_py	ground_marker_pz	ground_marker_px	ground_marker_py	ground_marker_pz	ground_marker_px	ground_marker_py	ground_marker_pz	ground_marker_px	ground_marker_py	ground_marker_pz	ground_marker_px	ground_marker_py	ground_marker_pz	ground_marker_px	ground_marker_py	ground_marker_pz	ground_marker_px	ground_marker_py	ground_marker_pz	ground_marker_px	ground_marker_py	ground_marker_pz	ground_marker_px	ground_marker_py	ground_marker_pz
      0.13333000	      0.62169036	      0.84909442	     -0.30334179	     -6.43771468	      6.65753582	      3.82075994	     -2.00165972	     -9.43979747	      0.49261929	    -43.29716497	    -22.80125205	     27.24702939	     10.90721597	     14.70735840	    -21.69249865	     -0.97724511	      0.35143583	     -7.96165617	      2.09760663	      0.00000000	      0.00000000	      0.00000000	      0.00000000	      0.67487919	      0.82046505	     -0.19793859	      0.66089787	      0.85273880	     -0.43053129	      0.63445661	      0.84775396	     -0.30419325	      0.48565061	      0.91998025	     -0.25839796	      0.47888541	      0.92380715	     -0.31255032	      0.55454190	      0.78652131	     -0.23004217	      0.54637107	      0.80530730	     -0.38212528	      0.55045649	      0.79591430	     -0.30608373	      0.52759118	      0.39794489	     -0.15098776	      0.51792111	      0.39263750	     -0.26753576	      0.69607147	      0.50741443	     -0.24368192	      0.64182507	      0.57111108	     -0.18954638	      0.61669490	      0.48710285	     -0.18187378	      0.19719044	      0.18195178	     -0.12835415	      0.21511815	      0.15467773	     -0.19631736	      0.25639946	      0.24272350	     -0.06983976	      0.26444505	      0.24018471	     -0.11332779	      0.50511014	      0.40712200	     -0.21087560	      0.21585052	      0.17401362	     -0.17700894	      0.20299006	      0.06935841	     -0.11250190	      0.73160445	      0.44967034	     -0.42065154	      0.69645534	      0.45333817	     -0.30189736	      0.73521372	      0.58677931	     -0.50125433	      0.64818579	      0.61048603	     -0.46218915	      0.68239490	      0.53146253	     -0.44303709	      0.67973854	      0.06477859	     -0.42783541	      0.68279517	      0.07115885	     -0.35751692	      0.77518111	      0.18272388	     -0.35181108	      0.73659715	      0.18262245	     -0.36900053	      0.68204860	      0.45148329	     -0.36081412	      0.68253761	      0.07873015	     -0.37538948	      0.79124219	      0.03377622	     -0.39149547	      0.63385630	      1.30813337	     -0.25015523	      0.62512512	      1.30272337	     -0.35555799	      0.49981617	      1.34550774	     -0.28968910	      0.62662492	      1.30164354	     -0.30188742	      0.67750651	      1.23994886	     -0.30678519	      0.56052200	      0.80558300	     -0.30123400	      0.54818000	      0.77678700	     -0.23015900	      0.53676300	      0.79643600	     -0.38058000	      0.50020500	      0.40601000	     -0.20719700	      0.68218000	      0.43087800	     -0.36485600	      0.20961600	      0.16939200	     -0.20694800	      0.67838200	      0.06824000	     -0.35530500	      0.63485900	      0.85790200	     -0.29999400	      0.63974100	      0.84293800	     -0.18545300	      0.62997600	      0.87286600	     -0.41453500	      0.44399600	      0.91888900	     -0.25176100	      0.43699500	      0.91879700	     -0.30621600	      0.50502000	      0.40896200	     -0.14947300	      0.69729300	      0.43448600	     -0.42073600	      0.51572200	      0.40469500	     -0.26316000	      0.68260000	      0.44708900	     -0.30318900	      0.19943400	      0.18193500	     -0.17035500	      0.67328100	      0.06724900	     -0.39496600	      0.22400900	      0.16530100	     -0.23820500	      0.68888200	      0.07712500	     -0.32952300	      0.50261700	      1.35305600	     -0.28999200	      0.63194700	      1.30110400	     -0.24941300	      0.62329800	      1.29589400	     -0.35581700	      0.62452800	      1.29536300	     -0.30166500	      0.66811300	      1.22807100	     -0.30576300	      0.68839500	      0.52711600	     -0.23417900	      0.70058400	      0.57125600	     -0.51013800	      0.62989700	      0.58641200	     -0.17742500	      0.61898000	      0.59736100	     -0.46470400	      0.60859700	      0.50055600	     -0.17288300	      0.65508900	      0.51924200	     -0.44556300	      0.25401200	      0.24208300	     -0.09993900	      0.77025500	      0.19582100	     -0.33157100	      0.26198000	      0.24354500	     -0.14170000	      0.73051100	      0.19209000	     -0.34656700	      0.21394200	      0.06552900	     -0.18703800	      0.78988400	      0.04231300	     -0.37429400	      0.00000000	      0.00000000	      0.00000000	      1.11448792	      0.00000000	     -0.25969681	   -102.34102926	    710.20593636	     45.36270925	      0.70152191	      0.00000000	     -0.36084741	      0.00000000	      0.00000000	      0.00000000	      0.00000000	      1.71185840	      0.00000000	      0.56052154	      0.80558276	     -0.30123445	      0.54817992	      0.77678657	     -0.23015894	      0.53676349	      0.79643577	     -0.38057962	      0.50020546	      0.40601012	     -0.20719713	      0.68217987	      0.43087751	     -0.36485615	      0.20961626	      0.16939203	     -0.20694757	      0.67838228	      0.06823970	     -0.35530481	      0.63485891	      0.85790229	     -0.29999378	      0.63974142	      0.84293836	     -0.18545280	      0.62997639	      0.87286621	     -0.41453478	      0.44399577	      0.91888857	     -0.25176126	      0.43699524	      0.91879678	     -0.30621612	      0.50502038	      0.40896195	     -0.14947274	      0.69729280	      0.43448579	     -0.42073616	      0.51572198	      0.40469533	     -0.26315963	      0.68259966	      0.44708949	     -0.30318871	      0.19943435	      0.18193495	     -0.17035519	      0.67328089	      0.06724851	     -0.39496580	      0.22400910	      0.16530053	     -0.23820505	      0.68888193	      0.07712521	     -0.32952288	      0.50261736	      1.35305560	     -0.28999215	      0.63194746	      1.30110395	     -0.24941280	      0.62329799	      1.29589438	     -0.35581750	      0.62452775	      1.29536343	     -0.30166462	      0.66811287	      1.22807097	     -0.30576313	      0.68839526	      0.52711558	     -0.23417936	      0.70058358	      0.57125646	     -0.51013839	      0.62989664	      0.58641160	     -0.17742491	      0.61897963	      0.59736127	     -0.46470392	      0.60859662	      0.50055617	     -0.17288288	      0.65508944	      0.51924169	     -0.44556341	      0.25401190	      0.24208321	     -0.09993854	      0.77025545	      0.19582140	     -0.33157092	      0.26197985	      0.24354511	     -0.14169963	      0.73051125	      0.19208992	     -0.34656742	      0.21394226	      0.06552914	     -0.18703778	      0.78988415	      0.04231334	     -0.37429398
      0.14167000	      0.63121302	      0.85077081	     -0.30538553	     -6.32856443	      6.70714346	      4.02042584	     -0.65282015	     -9.59821192	      0.54710075	    -45.74594899	    -24.16061497	     26.43166906	     11.05706743	     14.16660970	    -21.71523829	     -0.31462030	      0.12529473	     -7.97036037	      1.77307164	      0.00000000	      0.00000000	      0.00000000	      0.00000000	      0.68482006	      0.82213369	     -0.20019651	      0.66998636	      0.85466373	     -0.43270070	      0.64397940	      0.84946093	     -0.30628132	      0.49516109	      0.92128599	     -0.25989880	      0.48820598	      0.92516446	     -0.31402342	      0.56445474	      0.78795162	     -0.23194013	      0.55573191	      0.80690745	     -0.38397149	      0.56009332	      0.79742954	     -0.30795581	      0.54766855	      0.39881752	     -0.15281713	      0.53793604	      0.39325082	     -0.26934784	      0.71310920	      0.51258501	     -0.24581038	      0.65733277	      0.57486739	     -0.19158413	      0.63439020	      0.49023997	     -0.18386311	      0.21342454	      0.18720200	     -0.12930867	      0.23088949	      0.15937835	     -0.19716951	      0.27364658	      0.24719012	     -0.07101995	      0.28164654	      0.24435489	     -0.11449808	      0.52507186	      0.40686996	     -0.21266266	      0.23194676	      0.17877102	     -0.17793322	      0.21485795	      0.07478037	     -0.11333304	      0.73607084	      0.44881499	     -0.42297128	      0.70251760	      0.45353862	     -0.30379353	      0.74031299	      0.58544464	     -0.50435340	      0.65409818	      0.61042778	     -0.46429339	      0.68758144	      0.53108968	     -0.44515930	      0.67925223	      0.06456831	     -0.42743961	      0.68330507	      0.07127062	     -0.35720148	      0.77716191	      0.18167910	     -0.35328550	      0.73835912	      0.18198018	     -0.36997269	      0.68732854	      0.45155180	     -0.36250681	      0.68291056	      0.07875259	     -0.37510913	      0.79130986	      0.03353827	     -0.39249303	      0.64371782	      1.30944489	     -0.25152216	      0.63516764	      1.30408173	     -0.35694215	      0.50980371	      1.34702861	     -0.29128396	      0.63656966	      1.30298237	     -0.30326934	      0.68736942	      1.24121471	     -0.30809601	      0.57001500	      0.80683600	     -0.30245100	      0.55804400	      0.77797800	     -0.23155900	      0.54610000	      0.79778500	     -0.38191800	      0.51957200	      0.40563500	     -0.20822900	      0.68701400	      0.43094400	     -0.36604100	      0.22593300	      0.17469100	     -0.20906800	      0.67893600	      0.06820300	     -0.35532400	      0.64431800	      0.85937000	     -0.30157400	      0.64960300	      0.84427800	     -0.18707200	      0.63903400	      0.87446200	     -0.41607500	      0.45342000	      0.91971200	     -0.25223500	      0.44634900	      0.91989800	     -0.30663300	      0.52443200	      0.40874900	     -0.15051700	      0.70144800	      0.43406100	     -0.42213000	      0.53556500	      0.40385400	     -0.26568700	      0.68875900	      0.44606000	     -0.30553700	      0.21621600	      0.18691300	     -0.17224100	      0.67330700	      0.06715900	     -0.39491200	      0.24054900	      0.16998700	     -0.24018600	      0.68926900	      0.07703300	     -0.32949500	      0.51275200	      1.35453600	     -0.29161600	      0.64177700	      1.30271900	     -0.25092200	      0.63335400	      1.29743300	     -0.35736800	      0.63437200	      1.29684000	     -0.30297100	      0.67807600	      1.22965400	     -0.30715800	      0.70454100	      0.53049300	     -0.23563800	      0.70516300	      0.57044500	     -0.51223000	      0.64427100	      0.58849400	     -0.17916200	      0.62454200	      0.59793000	     -0.46515600	      0.62529200	      0.50214400	     -0.17480800	      0.65953000	      0.51933600	     -0.44708900	      0.27172100	      0.24473400	     -0.10143400	      0.77227000	      0.19471000	     -0.33328500	      0.28080300	      0.24655200	     -0.14320100	      0.73286400	      0.19193300	     -0.34784500	      0.22580400	      0.06992800	     -0.18853800	      0.78989000	      0.04228900	     -0.37457000	      0.00000000	      0.00000000	      0.00000000	      1.11549573	      0.00000000	     -0.25990372	    -96.78234779	    703.81037221	     45.97915054	      0.70301001	      0.00000000	     -0.36132111	      0.00000000	      0.00000000	      0.00000000	      0.00000000	      1.50530127	      0.00000000	      0.57001519	      0.80683643	     -0.30245054	      0.55804437	      0.77797776	     -0.23155938	      0.54609978	      0.79778469	     -0.38191837	      0.51957184	      0.40563542	     -0.20822895	      0.68701428	      0.43094385	     -0.36604103	      0.22593327	      0.17469108	     -0.20906772	      0.67893618	      0.06820278	     -0.35532409	      0.64431822	      0.85937023	     -0.30157366	      0.64960271	      0.84427840	     -0.18707207	      0.63903373	      0.87446201	     -0.41607526	      0.45342007	      0.91971236	     -0.25223461	      0.44634920	      0.91989762	     -0.30663303	      0.52443153	      0.40874943	     -0.15051685	      0.70144755	      0.43406051	     -0.42212993	      0.53556454	      0.40385368	     -0.26568735	      0.68875867	      0.44606039	     -0.30553722	      0.21621588	      0.18691269	     -0.17224103	      0.67330682	      0.06715854	     -0.39491224	      0.24054857	      0.16998741	     -0.24018553	      0.68926913	      0.07703265	     -0.32949495	      0.51275188	      1.35453606	     -0.29161558	      0.64177680	      1.30271935	     -0.25092232	      0.63335407	      1.29743302	     -0.35736811	      0.63437152	      1.29683959	     -0.30297104	      0.67807609	      1.22965372	     -0.30715767	      0.70454127	      0.53049326	     -0.23563775	      0.70516276	      0.57044512	     -0.51223016	      0.64427090	      0.58849442	     -0.17916214	      0.62454182	      0.59793007	     -0.46515566	      0.62529236	      0.50214416	     -0.17480826	      0.65952992	      0.51933599	     -0.44708943	      0.27172115	      0.24473439	     -0.10143410	      0.77227044	      0.19471030	     -0.33328512	      0.28080299	      0.24655202	     -0.14320108	      0.73286426	      0.19193296	     -0.34784469	      0.22580358	      0.06992846	     -0.18853800	      0.78989047	      0.04228885	     -0.37457022
      0.15000000	      0.64047770	      0.85245459	     -0.30739561	     -6.24510043	      6.67721342	      4.18727784	      0.75404159	     -9.62344045	      0.75876326	    -48.06157370	    -24.96148518	     25.61924656	     11.07866089	     13.60531794	    -21.61570021	      0.26679363	     -0.07608735	     -7.86143645	      1.35231679	      0.00000000	      0.00000000	      0.00000000	      0.00000000	      0.69444427	      0.82393537	     -0.20235851	      0.67887054	      0.85639102	     -0.43482469	      0.65324373	      0.85116746	     -0.30832857	      0.50443326	      0.92273467	     -0.26152423	      0.49731254	      0.92658954	     -0.31562899	      0.57404799	      0.78953069	     -0.23374221	      0.56484542	      0.80843964	     -0.38575113	      0.56944671	      0.79898517	     -0.30974667	      0.56765718	      0.40000479	     -0.15502563	      0.55764912	      0.39431597	     -0.27152710	      0.72974964	      0.51813216	     -0.24847805	      0.67257251	      0.57888540	     -0.19397656	      0.65186286	      0.49368234	     -0.18627434	      0.23026054	      0.19201229	     -0.13030766	      0.24719559	      0.16378319	     -0.19813536	      0.29144450	      0.25127201	     -0.07227619	      0.29931904	      0.24822094	     -0.11576261	      0.54484628	      0.40701676	     -0.21477562	      0.24856649	      0.18320390	     -0.17894721	      0.22866574	      0.07978143	     -0.11424005	      0.74004316	      0.44788462	     -0.42548970	      0.70819706	      0.45359296	     -0.30588741	      0.74490866	      0.58406843	     -0.50758113	      0.65957962	      0.61034212	     -0.46646418	      0.69230736	      0.53067071	     -0.44740798	      0.67890327	      0.06433937	     -0.42717636	      0.68399349	      0.07135204	     -0.35703612	      0.77911251	      0.18072579	     -0.35497951	      0.74009011	      0.18137483	     -0.37113628	      0.69215606	      0.45153296	     -0.36438142	      0.68343620	      0.07874708	     -0.37497553	      0.79150929	      0.03329272	     -0.39371196	      0.65334208	      1.31079160	     -0.25262426	      0.64521860	      1.30552141	     -0.35808268	      0.51965616	      1.34862835	     -0.29291052	      0.64639702	      1.30437965	     -0.30440537	      0.69711337	      1.24253094	     -0.30906871	      0.57906900	      0.80791600	     -0.30363400	      0.56763500	      0.77931900	     -0.23264300	      0.55517500	      0.79905200	     -0.38297000	      0.53882600	      0.40570300	     -0.20922600	      0.69139000	      0.43099600	     -0.36724500	      0.24286500	      0.17978800	     -0.21164200	      0.67963800	      0.06812800	     -0.35536900	      0.65354700	      0.86083100	     -0.30296300	      0.65922900	      0.84577800	     -0.18839100	      0.64786500	      0.87588400	     -0.41753500	      0.46267900	      0.92070700	     -0.25278500	      0.45554700	      0.92110900	     -0.30714600	      0.54386500	      0.40893000	     -0.15153500	      0.70506800	      0.43365300	     -0.42354600	      0.55631800	      0.40268900	     -0.26768000	      0.69583600	      0.44561600	     -0.30788100	      0.23356000	      0.19158000	     -0.17456900	      0.67327800	      0.06704200	     -0.39484500	      0.25760000	      0.17495900	     -0.24281800	      0.68961800	      0.07696200	     -0.32968300	      0.52243000	      1.35639900	     -0.29317200	      0.65176000	      1.30457600	     -0.25201900	      0.64345800	      1.29900300	     -0.35872200	      0.64421400	      1.29837900	     -0.30421600	      0.68813700	      1.23136800	     -0.30815000	      0.72044400	      0.53427700	     -0.23738300	      0.70919100	      0.56961500	     -0.51429900	      0.65884900	      0.59070100	     -0.18115800	      0.62981400	      0.59855500	     -0.46587400	      0.64287400	      0.50399100	     -0.17688200	      0.66434600	      0.51931800	     -0.44863900	      0.28986900	      0.24714400	     -0.10325200	      0.77424100	      0.19365000	     -0.33550200	      0.29955300	      0.24942400	     -0.14495800	      0.73591200	      0.19157900	     -0.34985500	      0.23938500	      0.07429300	     -0.19013200	      0.78979900	      0.04230600	     -0.37493000	      0.00000000	      0.00000000	      0.00000000	      1.11656311	      0.00000000	     -0.26013567	    -90.36015887	    693.78827303	     46.23187589	      0.70483044	      0.00000000	     -0.36188391	      0.00000000	      0.00000000	      0.00000000	      0.00000000	      1.22749707	      0.00000000	      0.57906866	      0.80791616	     -0.30363405	      0.56763548	      0.77931869	     -0.23264332	      0.55517471	      0.79905206	     -0.38297006	      0.53882611	      0.40570277	     -0.20922591	      0.69139040	      0.43099639	     -0.36724463	      0.24286467	      0.17978765	     -0.21164176	      0.67963833	      0.06812786	     -0.35536927	      0.65354687	      0.86083126	     -0.30296290	      0.65922868	      0.84577811	     -0.18839082	      0.64786506	      0.87588441	     -0.41753501	      0.46267942	      0.92070657	     -0.25278506	      0.45554721	      0.92110938	     -0.30714637	      0.54386473	      0.40893015	     -0.15153539	      0.70506769	      0.43365276	     -0.42354625	      0.55631787	      0.40268931	     -0.26767978	      0.69583583	      0.44561636	     -0.30788139	      0.23356031	      0.19158044	     -0.17456941	      0.67327785	      0.06704194	     -0.39484540	      0.25759956	      0.17495923	     -0.24281758	      0.68961829	      0.07696214	     -0.32968259	      0.52242970	      1.35639918	     -0.29317194	      0.65175962	      1.30457640	     -0.25201926	      0.64345813	      1.29900265	     -0.35872212	      0.64421433	      1.29837930	     -0.30421564	      0.68813723	      1.23136771	     -0.30814967	      0.72044361	      0.53427690	     -0.23738287	      0.70919132	      0.56961548	     -0.51429927	      0.65884870	      0.59070092	     -0.18115781	      0.62981445	      0.59855491	     -0.46587440	      0.64287448	      0.50399089	     -0.17688189	      0.66434610	      0.51931792	     -0.44863921	      0.28986943	      0.24714363	     -0.10325170	      0.77424133	      0.19364972	     -0.33550227	      0.29955265	      0.24942352	     -0.14495824	      0.73591161	      0.19157889	     -0.34985477	      0.23938492	      0.07429272	     -0.19013220	      0.78979927	      0.04230608	     -0.37493032
